<svg xmlns="http://www.w3.org/2000/svg" width="486.017" height="430.385" viewBox="0 0 486.017 430.385">
  <g id="Group_7046" data-name="Group 7046" transform="translate(-712.502 -205.097)">
    <path id="Path_6638" data-name="Path 6638" d="M88.585,6.661c48.079,0,84.9-29.213,84.9-81.248,0-38.342-22.214-63.9-58.73-63.9-14.606,0-25.257,3.347-32.864,7.607l9.738-39.559H173.18L179.875-210H61.806L37.767-102.886,71.24-84.933c9.433-9.129,18.562-15.519,32.256-15.519,16.736,0,28.6,10.955,28.6,29.517,0,25.561-20.388,38.646-39.255,38.646-23.735,0-32.56-14-37.125-24.648L18.9-41.722C26.812-13.422,54.5,6.661,88.585,6.661Z" transform="translate(693.602 628.82)" fill="#fff"/>
    <g id="Group_2501" data-name="Group 2501" transform="translate(1849.254 -486.385) rotate(120)">
      <path id="Subtraction_2" data-name="Subtraction 2" d="M-1814.953-1134.036a21.672,21.672,0,0,1-10.639-2.8,21.532,21.532,0,0,1-8.046-7.983l-19.594-33.938a21.412,21.412,0,0,1-2.153-16.355,21.412,21.412,0,0,1,10.042-13.087l39.029-22.533a21.547,21.547,0,0,1,10.757-2.891,21.676,21.676,0,0,1,10.639,2.8,21.533,21.533,0,0,1,8.047,7.984c.038.055,3.844,5.588,8.12,12.472,3.959,6.373,9.164,15.271,11.474,21.465a21.412,21.412,0,0,1,2.153,16.355,21.413,21.413,0,0,1-10.042,13.088l-39.029,22.532A21.548,21.548,0,0,1-1814.953-1134.036Zm33.122-55.441a4,4,0,0,0-2,.537l-37.191,21.471a4.006,4.006,0,0,0-1.464,5.465l3.838,6.646a4.014,4.014,0,0,0,3.468,2,4,4,0,0,0,2-.536l37.191-21.472a3.972,3.972,0,0,0,1.862-2.429,3.974,3.974,0,0,0-.4-3.035l-3.838-6.647A4.014,4.014,0,0,0-1781.831-1189.477Zm-15.675-25.472a4,4,0,0,0-2,.536l-37.191,21.472a4.005,4.005,0,0,0-1.464,5.464l3.838,6.647a4.017,4.017,0,0,0,3.469,2,4,4,0,0,0,2-.536l37.191-21.472a3.975,3.975,0,0,0,1.862-2.43,3.97,3.97,0,0,0-.4-3.034l-3.838-6.647A4.014,4.014,0,0,0-1797.507-1214.949Z" transform="translate(2908.577 1573.964)" fill="#fff"/>
    </g>
    <path id="Subtraction_1" data-name="Subtraction 1" d="M-1920.965,216.662a63.6,63.6,0,0,1-26.871-5.93,68.814,68.814,0,0,1-21.943-16.171,75.949,75.949,0,0,1-14.795-23.985A81.051,81.051,0,0,1-1990,141.2V75.458a81.051,81.051,0,0,1,5.425-29.372A75.95,75.95,0,0,1-1969.78,22.1,68.814,68.814,0,0,1-1947.837,5.93,63.6,63.6,0,0,1-1920.965,0a63.6,63.6,0,0,1,26.871,5.93A68.814,68.814,0,0,1-1872.151,22.1a75.949,75.949,0,0,1,14.795,23.985,81.051,81.051,0,0,1,5.425,29.372V141.2a81.051,81.051,0,0,1-5.425,29.372,75.951,75.951,0,0,1-14.795,23.985,68.814,68.814,0,0,1-21.943,16.171A63.6,63.6,0,0,1-1920.965,216.662Zm-.485-174.867a28.032,28.032,0,0,0-28,28v76.775a28.032,28.032,0,0,0,28,28,28.032,28.032,0,0,0,28-28V69.794A28.032,28.032,0,0,0-1921.451,41.794Z" transform="translate(2887.45 418.82)" fill="#fff"/>
    <path id="Subtraction_3" data-name="Subtraction 3" d="M-1920.965,216.662a63.6,63.6,0,0,1-26.871-5.93,68.814,68.814,0,0,1-21.943-16.171,75.949,75.949,0,0,1-14.795-23.985A81.051,81.051,0,0,1-1990,141.2V75.458a81.051,81.051,0,0,1,5.425-29.372A75.95,75.95,0,0,1-1969.78,22.1,68.814,68.814,0,0,1-1947.837,5.93,63.6,63.6,0,0,1-1920.965,0a63.6,63.6,0,0,1,26.871,5.93A68.814,68.814,0,0,1-1872.151,22.1a75.949,75.949,0,0,1,14.795,23.985,81.051,81.051,0,0,1,5.425,29.372V141.2a81.051,81.051,0,0,1-5.425,29.372,75.951,75.951,0,0,1-14.795,23.985,68.814,68.814,0,0,1-21.943,16.171A63.6,63.6,0,0,1-1920.965,216.662Zm-.485-174.867a28.032,28.032,0,0,0-28,28v76.775a28.032,28.032,0,0,0,28,28,28.032,28.032,0,0,0,28-28V69.794A28.032,28.032,0,0,0-1921.451,41.794Z" transform="translate(3050.45 418.82)" fill="#fff"/>
  </g>
</svg>
