<svg xmlns="http://www.w3.org/2000/svg" width="283.952" height="119.041" viewBox="0 0 283.952 119.041">
  <g id="Group_7045" data-name="Group 7045" transform="translate(-65 -236.82)">
    <path id="Subtraction_1" data-name="Subtraction 1" d="M37.93,119.041a34.94,34.94,0,0,1-14.764-3.258A37.809,37.809,0,0,1,11.109,106.9,41.729,41.729,0,0,1,2.981,93.72,44.534,44.534,0,0,1,0,77.582V41.459A44.534,44.534,0,0,1,2.981,25.321a41.729,41.729,0,0,1,8.129-13.178A37.809,37.809,0,0,1,23.166,3.258a35.081,35.081,0,0,1,29.528,0A37.809,37.809,0,0,1,64.75,12.143a41.729,41.729,0,0,1,8.129,13.178A44.533,44.533,0,0,1,75.86,41.459V77.582A44.533,44.533,0,0,1,72.879,93.72,41.729,41.729,0,0,1,64.75,106.9a37.809,37.809,0,0,1-12.057,8.885A34.942,34.942,0,0,1,37.93,119.041Zm-.266-96.079A15.4,15.4,0,0,0,22.279,38.347V80.529a15.384,15.384,0,1,0,30.768,0V38.347A15.4,15.4,0,0,0,37.663,22.963Z" transform="translate(169.087 236.82)" fill="#fff"/>
    <path id="Path_6471" data-name="Path 6471" d="M51.894-96.467H83.467v-21.417H96.109v-24.437H83.467V-214.9H54.35L4.459-142.321v24.437H51.894Zm8.938-45.854H32.407l28.425-43.425Z" transform="translate(60.541 452.064)" fill="#fff"/>
    <path id="Path_6642" data-name="Path 6642" d="M51.894-96.467H83.467v-21.417H96.109v-24.437H83.467V-214.9H54.35L4.459-142.321v24.437H51.894Zm8.938-45.854H32.407l28.425-43.425Z" transform="translate(252.843 452.064)" fill="#fff"/>
  </g>
</svg>
