<svg xmlns="http://www.w3.org/2000/svg" width="274" height="122.146" viewBox="0 0 274 122.146">
  <g id="Group_7044" data-name="Group 7044" transform="translate(-73 -215.82)">
    <path id="Path_6638" data-name="Path 6638" d="M58.186-87.854c27.105,0,47.863-16.469,47.863-45.8,0-21.616-12.523-36.026-33.11-36.026-8.235,0-14.239,1.887-18.528,4.289l5.49-22.3h45.976l3.774-22.3H43.089L29.536-149.613l18.871,10.122c5.318-5.147,10.465-8.749,18.185-8.749,9.435,0,16.126,6.176,16.126,16.641,0,14.41-11.494,21.787-22.13,21.787-13.381,0-18.356-7.891-20.93-13.9L18.9-115.131C23.36-99.176,38.972-87.854,58.186-87.854Z" transform="translate(54.1 425.82)" fill="#fff"/>
    <path id="Subtraction_1" data-name="Subtraction 1" d="M38.92,122.146A35.854,35.854,0,0,1,23.77,118.8,38.8,38.8,0,0,1,11.4,109.686,42.817,42.817,0,0,1,3.058,96.165,45.694,45.694,0,0,1,0,79.606V42.54A45.694,45.694,0,0,1,3.058,25.982,42.817,42.817,0,0,1,11.4,12.46,38.8,38.8,0,0,1,23.77,3.343a36,36,0,0,1,30.3,0A38.8,38.8,0,0,1,66.439,12.46,42.818,42.818,0,0,1,74.78,25.982,45.694,45.694,0,0,1,77.838,42.54V79.606A45.694,45.694,0,0,1,74.78,96.165a42.818,42.818,0,0,1-8.341,13.522A38.8,38.8,0,0,1,54.068,118.8,35.852,35.852,0,0,1,38.92,122.146Zm-.274-98.584A15.8,15.8,0,0,0,22.86,39.347V82.63a15.786,15.786,0,0,0,31.571,0V39.347A15.8,15.8,0,0,0,38.646,23.562Z" transform="translate(177.268 215.82)" fill="#fff"/>
    <path id="Subtraction_3" data-name="Subtraction 3" d="M38.92,122.146A35.854,35.854,0,0,1,23.77,118.8,38.8,38.8,0,0,1,11.4,109.686,42.817,42.817,0,0,1,3.058,96.165,45.694,45.694,0,0,1,0,79.606V42.54A45.694,45.694,0,0,1,3.058,25.982,42.817,42.817,0,0,1,11.4,12.46,38.8,38.8,0,0,1,23.77,3.343a36,36,0,0,1,30.3,0A38.8,38.8,0,0,1,66.439,12.46,42.818,42.818,0,0,1,74.78,25.982,45.694,45.694,0,0,1,77.838,42.54V79.606A45.694,45.694,0,0,1,74.78,96.165a42.818,42.818,0,0,1-8.341,13.522A38.8,38.8,0,0,1,54.068,118.8,35.852,35.852,0,0,1,38.92,122.146Zm-.274-98.584A15.8,15.8,0,0,0,22.86,39.347V82.63a15.786,15.786,0,0,0,31.571,0V39.347A15.8,15.8,0,0,0,38.646,23.562Z" transform="translate(269.161 215.82)" fill="#fff"/>
  </g>
</svg>
