<svg xmlns="http://www.w3.org/2000/svg" width="1626.955" height="290.965" viewBox="0 0 1626.955 290.965">
  <g id="Group_7044" data-name="Group 7044" transform="translate(-134.568 -347.517)">
    <path id="Subtraction_1" data-name="Subtraction 1" d="M-1920.965,216.662a63.6,63.6,0,0,1-26.871-5.93,68.814,68.814,0,0,1-21.943-16.171,75.949,75.949,0,0,1-14.795-23.985A81.051,81.051,0,0,1-1990,141.2V75.458a81.051,81.051,0,0,1,5.425-29.372A75.95,75.95,0,0,1-1969.78,22.1,68.814,68.814,0,0,1-1947.837,5.93,63.6,63.6,0,0,1-1920.965,0a63.6,63.6,0,0,1,26.871,5.93A68.814,68.814,0,0,1-1872.151,22.1a75.949,75.949,0,0,1,14.795,23.985,81.051,81.051,0,0,1,5.425,29.372V141.2a81.051,81.051,0,0,1-5.425,29.372,75.951,75.951,0,0,1-14.795,23.985,68.814,68.814,0,0,1-21.943,16.171A63.6,63.6,0,0,1-1920.965,216.662Zm-.485-174.867a28.032,28.032,0,0,0-28,28v76.775a28.032,28.032,0,0,0,28,28,28.032,28.032,0,0,0,28-28V69.794A28.032,28.032,0,0,0-1921.451,41.794Z" transform="translate(2890.45 421.82)" fill="#fff"/>
    <path id="Path_6471" data-name="Path 6471" d="M90.793.655h57.464v-38.98h23.01V-82.8h-23.01V-214.9H95.263L4.459-82.8v44.476H90.793ZM107.06-82.8H55.326l51.734-79.035Z" transform="translate(706.547 637.346)" fill="#fff"/>
    <path id="Path_6642" data-name="Path 6642" d="M90.793.655h57.464v-38.98h23.01V-82.8h-23.01V-214.9H95.263L4.459-82.8v44.476H90.793ZM107.06-82.8H55.326l51.734-79.035Z" transform="translate(1056.547 637.346)" fill="#fff"/>
    <path id="Path_6473" data-name="Path 6473" d="M512.875,174.5s-189,11.156-252.81,2.37-28.206-18.5-35.676-34.021c-4.078-8.477-30.17-15.557-54.955-14.993-20.2.459-36.53,3.236-44.392,11.56-8.785,12.022,7.4,20.809-3.7,29.594S91.065,183.74,58,182.88s-65.662-4.162-58-25.9S79.266,120.455,81.115,52.943,0,0,0,0" transform="translate(201.5 398.5)" fill="none" stroke="#fff" stroke-width="5"/>
    <path id="Path_6475" data-name="Path 6475" d="M-4.163,214.681s175.743,14.257,235.6,3.437,26.458-22.778,33.465-41.9c3.826-10.439,28.3-19.158,51.549-18.464,18.952.565,34.266,3.985,41.64,14.235,8.241,14.806-6.941,25.626,3.47,36.444s28.4,18.143,59.423,17.085,61.593-5.126,54.4-31.89S401.031,148.646,399.3,65.506,475.384.306,475.384.306" transform="translate(1230.5 361.839)" fill="none" stroke="#fff" stroke-width="5"/>
    <path id="Path_6474" data-name="Path 6474" d="M11,0H34A11,11,0,0,1,45,11l.244,3.354a86.747,86.747,0,0,1,12.939-.392,44.669,44.669,0,0,1,12.653,3.016L68.31,25.24a46.141,46.141,0,0,0-10.657-1.293,96.831,96.831,0,0,0-11.57.612L45,31A11,11,0,0,1,34,42H11A11,11,0,0,1,0,31V11A11,11,0,0,1,11,0Z" transform="translate(134.568 414.729) rotate(-30)" fill="#fff"/>
    <path id="Path_6476" data-name="Path 6476" d="M9.2,31.369H28.189c5.016,0,9.082-3.678,9.082-8.216l.2-2.5a79.116,79.116,0,0,0,10.683.292A40.046,40.046,0,0,0,58.6,18.689l-2.086-6.171a41.869,41.869,0,0,1-8.8.966,88.27,88.27,0,0,1-9.552-.457l-.894-4.811C37.271,3.678,33.205,0,28.189,0H9.2C3.069.228.933,6.544,4.975,9.035s14.52.216,18.167,2.971,3.444,6.613-.444,8.3S5.777,18.974,2.6,21.437c-2.09,1.62-3.482,7.245.454,8.549A16.518,16.518,0,0,0,9.2,31.369Z" transform="translate(1746.319 403.984) rotate(-150)" fill="#fff"/>
    <rect id="Rectangle_1639" data-name="Rectangle 1639" width="26" height="8" rx="4" transform="translate(146.742 418.036) rotate(-30)" fill="#0c2353"/>
    <rect id="Rectangle_1640" data-name="Rectangle 1640" width="26" height="8" rx="4" transform="translate(154.742 431.036) rotate(-30)" fill="#0c2353"/>
  </g>
</svg>
