<svg xmlns="http://www.w3.org/2000/svg" width="581.813" height="673.202" viewBox="0 0 581.813 673.202">
  <g id="Group_2503" data-name="Group 2503" transform="translate(-1254.856 -589.745)">
    <path id="Path_6475" data-name="Path 6475" d="M-117.867,428.786S-54.511,462.207,8.661,399.76C39.8,367.738,31.232,310.318,52.856,263.794c28.512-61.346,66.473-102.257,97.94-93.76,76.173,20.569,35.3,109.124,99.555,113.432s74.978-63.641,134.776-98.932,98.91-40.455,98.91-40.455" transform="matrix(-0.454, -0.891, 0.891, -0.454, 1390.39, 1221.172)" fill="none" stroke="#fff" stroke-width="5"/>
    <path id="Path_6476" data-name="Path 6476" d="M9.2,31.369H28.189c5.016,0,9.082-3.678,9.082-8.216l.2-2.5a79.116,79.116,0,0,0,10.683.292c5.215-.275,10.217-.441,10.217-.441l-1.855-7.982a41.869,41.869,0,0,1-8.8.966,88.27,88.27,0,0,1-9.552-.457l-.894-4.811C37.271,3.678,33.205,0,28.189,0H9.2C3.069.228.933,6.544,4.975,9.035s14.52.216,18.167,2.971,3.444,6.613-.444,8.3S5.777,18.974,2.6,21.437c-2.09,1.62-3.482,7.245.454,8.549A16.518,16.518,0,0,0,9.2,31.369Z" transform="matrix(0.643, 0.766, -0.766, 0.643, 1278.53, 674.448)" fill="#fff"/>
  </g>
</svg>
