<svg xmlns="http://www.w3.org/2000/svg" width="192.757" height="192.951" viewBox="0 0 192.757 192.951">
  <g id="ea129760deb6d42e4285eb54eee9cea8" transform="translate(-9 -8.449)">
    <g id="Group_2934" data-name="Group 2934" transform="translate(10 9.466)">
      <path id="Path_6608" data-name="Path 6608" d="M86.584-500.889A20.947,20.947,0,0,0,71.83-485.921c-.512,1.919-.64,5.5-.64,17.27v14.839h40.936v-13.644l25.116.086c24.647.128,25.159.128,26.309,1.024A11.584,11.584,0,0,1,165.6-464.3c.9,1.152.9,1.621,1.024,30.745l.086,29.593-1.15-.383a55.309,55.309,0,0,0-12.494-1.705,49.414,49.414,0,0,0-21.406,5.16l-3.326,1.662H98.482v6.824h20.935l-2.431,2.857c-1.364,1.621-3.114,3.965-3.924,5.2-1.705,2.686-4.989,9.467-5.415,11.258l-.3,1.152-43.2-.086c-42.9-.128-43.239-.128-44.389-1.024a11.585,11.585,0,0,1-2.048-2.048c-.9-1.152-.9-1.407-.9-44.6s0-43.451.9-44.6a11.651,11.651,0,0,1,2.048-2.048c1.152-.853,1.705-.9,22.9-1.024l21.7-.128v-6.824l-22.259.128-22.3.128L17.676-473a15.009,15.009,0,0,0-6.61,6.61L10-464.26v89.12l1.067,2.131a15.009,15.009,0,0,0,6.61,6.61l2.131,1.067,42.939.128,42.939.086-.257,4.391A51.283,51.283,0,0,0,107.05-345.5a64.564,64.564,0,0,0,6.4,13.9,48.571,48.571,0,0,0,32.364,20.425,45.967,45.967,0,0,0,28.954-4.734c28.952-14.711,34.924-53.43,11.727-76.37a53.689,53.689,0,0,0-10.917-8.06l-2.048-1.024-.086-31.469-.128-31.426-1.067-2.131a15.009,15.009,0,0,0-6.61-6.61l-2.131-1.067-25.671-.128-25.712-.128v-4.35c0-7.462-1.536-11.9-5.715-16.418A20.349,20.349,0,0,0,86.584-500.889Zm10.872,7.546a14.49,14.49,0,0,1,6.524,6.653c1.109,2.388,1.109,2.474,1.236,14.2l.128,11.853H77.969l.128-12.068.128-12.025,1.536-2.772a14.085,14.085,0,0,1,7.591-6.567A15.035,15.035,0,0,1,97.456-493.343ZM162.911-398a39.119,39.119,0,0,1,19.146,11.087,40.945,40.945,0,0,1,10.958,19.487c1.024,4.05,1.024,14.2,0,18.251a39.687,39.687,0,0,1-11.172,19.658,39.7,39.7,0,0,1-19.658,11.172c-4.05,1.024-14.2,1.024-18.251,0a41.067,41.067,0,0,1-19.7-11.129,41.076,41.076,0,0,1-11.129-19.7c-1.024-4.05-1.024-14.2,0-18.251a40.96,40.96,0,0,1,10.958-19.487,39.612,39.612,0,0,1,21.875-11.727A49.321,49.321,0,0,1,162.911-398Z" transform="translate(-10 501.534)" fill="#fff" stroke="#00124b" stroke-width="2"/>
      <path id="Path_6609" data-name="Path 6609" d="M407.326-422.092a4.939,4.939,0,0,0-2.986,4.776,3.737,3.737,0,0,0,1.407,3.455,3.766,3.766,0,0,0,3.5,1.407,3.772,3.772,0,0,0,3.5-1.407,3.766,3.766,0,0,0,1.407-3.5,3.844,3.844,0,0,0-1.322-3.455A5.506,5.506,0,0,0,407.326-422.092Z" transform="translate(-327.587 437.789)" fill="#fff" stroke="#00124b" stroke-width="2"/>
      <path id="Path_6610" data-name="Path 6610" d="M656.959,165.567l-12.282,12.28-5.458-5.458a52.615,52.615,0,0,0-5.884-5.415c-.512,0-4.436,3.924-4.436,4.477,0,.257,3.539,3.965,7.889,8.315l7.889,7.889,14.711-14.711c8.1-8.1,14.711-14.882,14.711-15.094,0-.383-4.265-4.519-4.691-4.519C669.281,153.328,663.7,158.828,656.959,165.567Z" transform="translate(-508.439 -25.869)" fill="#fff" stroke="#00124b" stroke-width="2"/>
      <path id="Path_6611" data-name="Path 6611" d="M193.7-220.43a13.625,13.625,0,0,0-5.331,22.557c2.772,2.814,5.331,3.838,9.594,3.838s6.822-1.024,9.594-3.838c2.814-2.772,3.838-5.331,3.838-9.594s-1.024-6.822-3.838-9.594C204.062-220.558,198.092-222.009,193.7-220.43Zm6.951,6.736a6.7,6.7,0,0,1,2.048,10.958,6.429,6.429,0,0,1-9.467,0C187.944-207.979,193.787-216.592,200.652-213.694Z" transform="translate(-150.42 280.655)" fill="#fff" stroke="#00124b" stroke-width="2.5"/>
      <path id="Path_6612" data-name="Path 6612" d="M464.59-182.848v3.412h54.58v-6.824H464.59Z" transform="translate(-376.11 247.624)" fill="#fff" stroke="#00124b" stroke-width="2"/>
      <path id="Path_6613" data-name="Path 6613" d="M464.59-77.688v3.412h54.58V-81.1H464.59Z" transform="translate(-376.11 162.932)" fill="#fff" stroke="#00124b" stroke-width="2"/>
      <path id="Path_6614" data-name="Path 6614" d="M123.344-56.1a29.921,29.921,0,0,0-7.762,4.755l-1.522,1.412v17.888h47.533V-49.843l-1.375-1.317a29.266,29.266,0,0,0-8.318-5.084L149.823-57l-2.08,1.554a14.17,14.17,0,0,1-9.914,3.341,14.017,14.017,0,0,1-9.8-3.249,11.649,11.649,0,0,0-2.414-1.6A20.121,20.121,0,0,0,123.344-56.1Zm3.268,8.472a18.944,18.944,0,0,0,11.4,3.06c4.531,0,6.462-.612,11.957-3.483,1.039-.565,1.375-.518,4.5,1.7l.112,3.389.112,3.389H121V-46.22C124.31-48.762,124.831-48.809,126.612-47.632Z" transform="translate(-90.283 141.173)" fill="#fff" stroke="#00124b" stroke-width="3"/>
    </g>
  </g>
</svg>
