<svg xmlns="http://www.w3.org/2000/svg" xmlns:xlink="http://www.w3.org/1999/xlink" width="218.523" height="216.41" viewBox="0 0 218.523 216.41">
  <defs>
    <filter id="Path_6603" x="0" y="0" width="218.523" height="196.613" filterUnits="userSpaceOnUse">
      <feOffset dy="3" input="SourceAlpha"/>
      <feGaussianBlur stdDeviation="3" result="blur"/>
      <feFlood flood-color="#00005a" flood-opacity="0.478"/>
      <feComposite operator="in" in2="blur"/>
      <feComposite in="SourceGraphic"/>
    </filter>
    <filter id="Path_6604" x="84.046" y="40.951" width="78.481" height="111.027" filterUnits="userSpaceOnUse">
      <feOffset dy="3" input="SourceAlpha"/>
      <feGaussianBlur stdDeviation="3" result="blur-2"/>
      <feFlood flood-color="#00005a" flood-opacity="0.478"/>
      <feComposite operator="in" in2="blur-2"/>
      <feComposite in="SourceGraphic"/>
    </filter>
    <filter id="Path_6605" x="135.191" y="152.634" width="49.973" height="49.521" filterUnits="userSpaceOnUse">
      <feOffset dy="3" input="SourceAlpha"/>
      <feGaussianBlur stdDeviation="3" result="blur-3"/>
      <feFlood flood-color="#00005a" flood-opacity="0.478"/>
      <feComposite operator="in" in2="blur-3"/>
      <feComposite in="SourceGraphic"/>
    </filter>
    <filter id="Path_6606" x="59.758" y="166.823" width="50.455" height="47.339" filterUnits="userSpaceOnUse">
      <feOffset dy="3" input="SourceAlpha"/>
      <feGaussianBlur stdDeviation="3" result="blur-4"/>
      <feFlood flood-color="#00005a" flood-opacity="0.478"/>
      <feComposite operator="in" in2="blur-4"/>
      <feComposite in="SourceGraphic"/>
    </filter>
    <filter id="Path_6607" x="98.744" y="169.462" width="50.874" height="46.948" filterUnits="userSpaceOnUse">
      <feOffset dy="3" input="SourceAlpha"/>
      <feGaussianBlur stdDeviation="3" result="blur-5"/>
      <feFlood flood-color="#00005a" flood-opacity="0.478"/>
      <feComposite operator="in" in2="blur-5"/>
      <feComposite in="SourceGraphic"/>
    </filter>
  </defs>
  <g id="_000000ff" data-name="#000000ff" transform="translate(9.278 5.807)">
    <g transform="matrix(1, 0, 0, 1, -9.28, -5.81)" filter="url(#Path_6603)">
      <path id="Path_6603-2" data-name="Path 6603" d="M60.71,13.74A95.345,95.345,0,0,1,163.54,29.78c3.69-3.42,7.02-7.22,10.79-10.56,3.18-2.6,8.55-.41,9.12,3.65,3.84,15.39,7.71,30.78,11.49,46.19,1.26,4-2.79,8.37-6.86,7.34-15.68-3.7-31.32-7.57-46.97-11.4-4.09-.65-6.11-6.22-3.32-9.3,3.64-3.98,7.65-7.61,11.36-11.53a75.774,75.774,0,0,0-42.14-18.1A74.317,74.317,0,0,0,26.22,88.89,75.249,75.249,0,0,0,49.36,155.6a10.282,10.282,0,0,1,1.57,14.39c-3.18,4.09-9.67,5.11-13.82,1.91A95.238,95.238,0,0,1,60.71,13.74Z" transform="translate(9.28 5.81)" fill="#fff" stroke="#00124b" stroke-width="10"/>
    </g>
    <g transform="matrix(1, 0, 0, 1, -9.28, -5.81)" filter="url(#Path_6604)">
      <path id="Path_6604-2" data-name="Path 6604" d="M89.8,58.04A10.189,10.189,0,1,1,110.15,57c.11,12.6,0,25.2.04,37.79,8.1,5.22,16.37,10.2,24.39,15.54,5,3.61,4.76,11.59.07,15.37a10.1,10.1,0,0,1-12.2.79q-14.04-8.9-28.05-17.84a10.02,10.02,0,0,1-4.59-8.68C89.78,86,89.8,72.02,89.8,58.04Z" transform="translate(9.28 5.81)" fill="#fff" stroke="#00124b" stroke-width="12"/>
    </g>
    <g transform="matrix(1, 0, 0, 1, -9.28, -5.81)" filter="url(#Path_6605)">
      <path id="Path_6605-2" data-name="Path 6605" d="M149.34,157.58c6.64-2.7,14.1,3.47,13.5,10.37-.14,5.53-5.2,8.93-9.54,11.36-6.37,3.15-14.58-2.28-14.38-9.32C138.68,163.82,144.51,160.03,149.34,157.58Z" transform="translate(9.28 5.81)" fill="#fff" stroke="#00124b" stroke-width="8"/>
    </g>
    <g transform="matrix(1, 0, 0, 1, -9.28, -5.81)" filter="url(#Path_6606)">
      <path id="Path_6606-2" data-name="Path 6606" d="M70.32,171.39c4.43-1.44,9.02.65,13.05,2.4,5.86,3.33,6.04,12.42.74,16.35-4.78,3.99-11.53,1.7-16.41-.87C61.05,184.99,62.65,173.54,70.32,171.39Z" transform="translate(9.28 5.81)" fill="#fff" stroke="#00124b" stroke-width="8"/>
    </g>
    <g transform="matrix(1, 0, 0, 1, -9.28, -5.81)" filter="url(#Path_6607)">
      <path id="Path_6607-2" data-name="Path 6607" d="M109.39,174.62c4.56-1.09,10.04-2.3,14.01,1.02,4.73,3.37,5.27,10.84,1.2,14.94-2.69,3.05-7.01,3.3-10.75,3.88-5.6.94-11.07-3.96-11.35-9.5A10.208,10.208,0,0,1,109.39,174.62Z" transform="translate(9.28 5.81)" fill="#fff" stroke="#00124b" stroke-width="8"/>
    </g>
  </g>
</svg>
