<svg id="Component_2_1" data-name="Component 2 – 1" xmlns="http://www.w3.org/2000/svg" xmlns:xlink="http://www.w3.org/1999/xlink" width="197" height="199" viewBox="0 0 197 199">
  <defs>
    <clipPath id="clip-path">
      <rect id="Rectangle_1276" data-name="Rectangle 1276" width="197" height="199" fill="#fff"/>
    </clipPath>
  </defs>
  <g id="Group_2122" data-name="Group 2122">
    <g id="Group_2121" data-name="Group 2121" clip-path="url(#clip-path)">
      <path id="Path_2607" data-name="Path 2607" d="M48.378,251.141a14.257,14.257,0,0,1,8.828-6.076A14.334,14.334,0,0,1,66.767,224.4a14.352,14.352,0,0,1,9.568-20.679,14.351,14.351,0,0,1,20.629-18.638l14.287,9.462a89.267,89.267,0,0,1,24.122-8.163,66.29,66.29,0,0,1,9.205-11.137l5.91-5.729a12.933,12.933,0,0,1,19.785,16.426c-.155.236-.307.473-.458.709a90.017,90.017,0,1,1-102.6,118.8,3.094,3.094,0,1,1,5.82-2.1,83.94,83.94,0,0,0,105.334,51.087l-25.175-16.672,0,0s0,0,0,0L132.261,323.9h0a8.438,8.438,0,0,1-2.378-11.7l.275-.42-4.065-2.691a13.772,13.772,0,0,0-9.821-2.122,19.957,19.957,0,0,1-14.219-3.074l-33.71-22.326a83.9,83.9,0,0,0,1.139,8.691A3.092,3.092,0,0,1,67,293.874a3.02,3.02,0,0,1-.567.053A3.1,3.1,0,0,1,63.4,291.4a90.5,90.5,0,0,1-1.479-14.073l-9.5-6.292a14.354,14.354,0,0,1-4.042-19.891Zm68.881-52.617,9.454,6.261,1.86-5.016a66.375,66.375,0,0,1,2.656-6.15,83.151,83.151,0,0,0-13.971,4.9Zm97.983,21.451a83.838,83.838,0,0,0-48.387-27.587,38.225,38.225,0,0,0-1.927,23.151l7.544,32.592a8.42,8.42,0,0,1,10.8-1.258l21.369,14.15,0,0,0,0,30.822,20.409c.169-2.174.257-4.364.257-6.553a83.806,83.806,0,0,0-20.48-54.907Zm-80.53,97.34a2.24,2.24,0,0,0,.966,1.43h0l18.378,12.17,34.107-50.867a3.094,3.094,0,0,1,5.139,3.447l-34.086,50.836L185.447,351.7a84.081,84.081,0,0,0,49.209-63.5L203.8,267.837l-3.552,5.3a3.093,3.093,0,0,1-2.574,1.37,3.06,3.06,0,0,1-1.719-.523,3.092,3.092,0,0,1-.847-4.293l3.526-5.262-18.781-12.4a2.254,2.254,0,0,0-3.119.636L135.04,315.626a2.236,2.236,0,0,0-.329,1.689ZM52.344,260.692a8.11,8.11,0,0,0,3.494,5.181l10.86,7.192a.063.063,0,0,0,.011.006l38.762,25.671a13.767,13.767,0,0,0,9.821,2.122,19.967,19.967,0,0,1,14.219,3.074l4.065,2.693,34.149-51.565L158.9,216.935a44.46,44.46,0,0,1,3.255-29.183c.04-.094.082-.186.131-.275a43.894,43.894,0,0,1,2.831-4.95,6.744,6.744,0,0,0-10.317-8.566l-5.911,5.729a60.445,60.445,0,0,0-14.508,22.235l-3.219,8.671c-.006.015-.012.029-.018.044s-.017.041-.024.061c-.023.053-.044.1-.067.143a3.037,3.037,0,0,1-.213.383,3.093,3.093,0,0,1-4.287.872l-33-21.854a8.163,8.163,0,1,0-9.015,13.612l2.864,1.9,0,0,6.391,4.232a.184.184,0,0,0,.025.017c.036.026.071.05.1.075a3.093,3.093,0,0,1-3.543,5.068l-6.394-4.237a8.165,8.165,0,0,0-9.012,13.618l9.258,6.132a3.093,3.093,0,1,1-3.415,5.158l-1.433-.949-4.959-3.283A8.164,8.164,0,1,0,65.4,245.2l4.625,3.062c.024.015.049.032.071.049l4.562,3.02a3.094,3.094,0,1,1-3.417,5.16l-1.433-.947,0,0-4.959-3.283a8.162,8.162,0,0,0-12.506,8.431Zm0,0" transform="translate(-45.464 -165.891)" fill="#fff"/>
    </g>
  </g>
</svg>
