<svg xmlns="http://www.w3.org/2000/svg" xmlns:xlink="http://www.w3.org/1999/xlink" width="185.653" height="185.653" viewBox="0 0 185.653 185.653">
  <defs>
    <filter id="Path_6551" x="0" y="0" width="185.653" height="185.653" filterUnits="userSpaceOnUse">
      <feOffset dy="3" input="SourceAlpha"/>
      <feGaussianBlur stdDeviation="3" result="blur"/>
      <feFlood flood-color="#000731" flood-opacity="0.388"/>
      <feComposite operator="in" in2="blur"/>
      <feComposite in="SourceGraphic"/>
    </filter>
    <clipPath id="clip-path">
      <path id="Path_6594" data-name="Path 6594" d="M412.494,86.905a82.326,82.326,0,1,0,0,116.426A82.061,82.061,0,0,0,412.494,86.905Z" transform="translate(-271.953 -62.792)" fill="#1eb40f"/>
    </clipPath>
    <filter id="Path_2354" x="38.146" y="45.146" width="118.854" height="118.854" filterUnits="userSpaceOnUse">
      <feOffset dx="5" dy="15" input="SourceAlpha"/>
      <feGaussianBlur stdDeviation="5" result="blur-2"/>
      <feFlood flood-color="#230000" flood-opacity="0.541"/>
      <feComposite operator="in" in2="blur-2"/>
      <feComposite in="SourceGraphic"/>
    </filter>
  </defs>
  <g id="Group_2828" data-name="Group 2828" transform="translate(-261.453 -55.292)">
    <g id="Group_2827" data-name="Group 2827" transform="translate(271.953 62.792)">
      <g transform="matrix(1, 0, 0, 1, -10.5, -7.5)" filter="url(#Path_6551)">
        <path id="Path_6551-2" data-name="Path 6551" d="M412.494,86.905a82.326,82.326,0,1,0,0,116.426A82.061,82.061,0,0,0,412.494,86.905Z" transform="translate(-261.45 -55.29)" fill="#ff2d2d" stroke="#fff" stroke-width="3"/>
      </g>
      <g transform="matrix(1, 0, 0, 1, -10.5, -7.5)" filter="url(#Path_2354)">
        <path id="Path_2354-2" data-name="Path 2354" d="M1289.418,225.192l-34.032-33.986,34.01-33.968a2.344,2.344,0,0,0,.035-3.257,2.211,2.211,0,0,0-3.182-.037l-34.087,34.046-34.1-34.046a2.21,2.21,0,0,0-3.181.037,2.345,2.345,0,0,0,.036,3.257l34.023,33.968-34.023,33.986a2.345,2.345,0,0,0-.036,3.257,2.241,2.241,0,0,0,1.611.691,2.191,2.191,0,0,0,1.57-.659l34.1-34.056,34.11,34.056a2.193,2.193,0,0,0,1.569.659,2.242,2.242,0,0,0,1.613-.691A2.342,2.342,0,0,0,1289.418,225.192Z" transform="translate(-1159.6 -101.64)" fill="#fff" stroke="#fff" stroke-width="13"/>
      </g>
    </g>
  </g>
</svg>
