<svg xmlns="http://www.w3.org/2000/svg" xmlns:xlink="http://www.w3.org/1999/xlink" width="185.653" height="185.653" viewBox="0 0 185.653 185.653">
  <defs>
    <filter id="Path_6551" x="0" y="0" width="185.653" height="185.653" filterUnits="userSpaceOnUse">
      <feOffset dy="3" input="SourceAlpha"/>
      <feGaussianBlur stdDeviation="3" result="blur"/>
      <feFlood flood-color="#001044" flood-opacity="0.439"/>
      <feComposite operator="in" in2="blur"/>
      <feComposite in="SourceGraphic"/>
    </filter>
    <clipPath id="clip-path">
      <path id="Path_6594" data-name="Path 6594" d="M412.494,86.905a82.326,82.326,0,1,0,0,116.426A82.061,82.061,0,0,0,412.494,86.905Z" transform="translate(-271.953 -62.792)" fill="#1eb40f" stroke="#fff" stroke-width="3"/>
    </clipPath>
    <filter id="Path_6595" x="28.961" y="52.287" width="136.843" height="108.504" filterUnits="userSpaceOnUse">
      <feOffset dx="5" dy="15" input="SourceAlpha"/>
      <feGaussianBlur stdDeviation="5" result="blur-2"/>
      <feFlood flood-color="#0a5e00" flood-opacity="0.459"/>
      <feComposite operator="in" in2="blur-2"/>
      <feComposite in="SourceGraphic"/>
    </filter>
  </defs>
  <g id="Group_2828" data-name="Group 2828" transform="translate(-261.453 -55.292)">
    <g id="Group_2827" data-name="Group 2827" transform="translate(271.953 62.792)">
      <g transform="matrix(1, 0, 0, 1, -10.5, -7.5)" filter="url(#Path_6551)">
        <path id="Path_6551-2" data-name="Path 6551" d="M412.494,86.905a82.326,82.326,0,1,0,0,116.426A82.061,82.061,0,0,0,412.494,86.905Z" transform="translate(-261.45 -55.29)" fill="#1eb40f" stroke="#fff" stroke-width="3"/>
      </g>
    </g>
    <g transform="matrix(1, 0, 0, 1, 261.45, 55.29)" filter="url(#Path_6595)">
      <path id="Path_6595-2" data-name="Path 6595" d="M325.059,124.847c-2.43,1.835-3.458.032-3.458.032l-18.176-17.173s-8.006-6.285-16.356,1.605-1.786,15.536-1.786,15.536,35.74,32.9,36.952,33.912a1.7,1.7,0,0,0,2.326-.158l61.42-57.03s8.311-8.67,0-17.141-18.142,0-18.142,0S327.489,123.011,325.059,124.847Z" transform="translate(-243.87 -28.38)" fill="#fff"/>
    </g>
  </g>
</svg>
