<svg id="Component_1_1" data-name="Component 1 – 1" xmlns="http://www.w3.org/2000/svg" width="129" height="76" viewBox="0 0 129 76">
  <rect id="Rectangle_1201" data-name="Rectangle 1201" width="129" height="76" rx="6" fill="#eee"/>
  <g id="Group_1868" data-name="Group 1868" transform="translate(14.871 13.343)">
    <line id="Line_13" data-name="Line 13" x2="42.36" transform="translate(56.626 13.959)" fill="none" stroke="#333" stroke-width="1"/>
    <line id="Line_14" data-name="Line 14" x2="42.36" transform="translate(56.626 24.89)" fill="none" stroke="#333" stroke-width="1"/>
    <line id="Line_15" data-name="Line 15" x2="42.36" transform="translate(56.626 35.821)" fill="none" stroke="#333" stroke-width="1"/>
    <g id="woman" transform="translate(5.756 5.131)">
      <g id="Group_1867" data-name="Group 1867" transform="translate(0 0)">
        <path id="Path_2525" data-name="Path 2525" d="M97.355,27.409a3.782,3.782,0,0,0-2.881-2.959h0c-.025-.007.217.053-5.779-1.433v-.2h4.414a1.652,1.652,0,0,0,1.65-1.65V12.745a2.062,2.062,0,0,0,0-.952V8.72a.56.56,0,1,0-1.121,0v1.609a2.91,2.91,0,0,0-1-.366,1.462,1.462,0,0,0-1.232-1.127,1.827,1.827,0,0,1-1.444-1.111.961.961,0,0,0-1.638-.15,10.256,10.256,0,0,1-8.267,4.252c-.352,0-.59-.017-.674-.02a1.482,1.482,0,0,0-1.568,1.48v1.288a7.6,7.6,0,0,0,2.343,5.475,7.506,7.506,0,0,0,1.619,1.178v.466H77.384a.53.53,0,0,1-.529-.529V8.569a7.444,7.444,0,0,1,7.351-7.448h.039a9.552,9.552,0,0,1,4.238,1.042c.718.4,1.162.081,1.872.081,1.732,0,3.119,1.781,3.286,3.382,0,.023,0,.117,0,.477a.571.571,0,0,0,.561.56.56.56,0,0,0,.56-.561c0-.1,0-.49-.009-.58-.225-2.229-2.127-4.4-4.4-4.4-.888,0-1.027.225-1.33.058A10.757,10.757,0,0,0,84.25,0a8.562,8.562,0,0,0-8.517,8.568V21.164a1.652,1.652,0,0,0,1.65,1.65h4.394v.2l-5.756,1.427L76,24.45l-.421.124-.037.012a3.719,3.719,0,0,0-2.424,2.823c-1.706,8.569-1.634,8.2-1.638,8.233a2.1,2.1,0,0,0,2.272,2.616h6.061a.56.56,0,0,0,0-1.121H77.7V31.851a.56.56,0,1,0-1.121,0v5.287H73.752c-.745,0-1.177-.24-1.184-1.022,0-.382-.018-.01,1.649-8.487a2.627,2.627,0,0,1,1.7-1.985l.389-.115,3.306-.819c3.677,4.332,3.46,4.1,3.672,4.31a2.716,2.716,0,0,0,4.131-.241l3.462-4.066,3.293.816a2.717,2.717,0,0,1,2.087,2.1c1.653,8.4,1.653,8.1,1.649,8.487-.006.766-.42,1.022-1.184,1.022H93.91V31.851a.56.56,0,1,0-1.121,0v5.287H82.428a.56.56,0,0,0,0,1.121H96.721a2.06,2.06,0,0,0,2.305-2.134C99.031,35.483,98.992,35.789,97.355,27.409Zm-4.679-16.29a1.407,1.407,0,0,1,.961.829v.642a1.406,1.406,0,0,1-.961.829Zm0,3.553v-.1a2.9,2.9,0,0,0,.961-.359v6.955a.53.53,0,0,1-.529.529H88.694v-.433A7.42,7.42,0,0,0,92.676,14.672ZM80.933,19.238a6.477,6.477,0,0,1-2-4.664c.033-1.22-.081-1.368.114-1.552a.354.354,0,0,1,.266-.1,11.259,11.259,0,0,0,9.758-4.483,2.876,2.876,0,0,0,2.187,1.5.337.337,0,0,1,.293.332v4.392A6.3,6.3,0,0,1,80.933,19.238Zm5.627,8.814a1.622,1.622,0,0,1-2.653,0l-1.169-1.38h5Zm2.134-2.506H81.787l-.963-1.137L82.473,24a.567.567,0,0,0,.426-.55V21.716a7.424,7.424,0,0,0,4.674.016,10.03,10.03,0,0,0,.031,1.908A.561.561,0,0,0,88,24l1.66.411Z" transform="translate(-71.445 -0.001)" fill="#333"/>
      </g>
    </g>
    <g id="Rectangle_1202" data-name="Rectangle 1202" transform="translate(0.129 -0.343)" fill="none" stroke="#333" stroke-width="1">
      <rect width="39" height="48" stroke="none"/>
      <rect x="0.5" y="0.5" width="38" height="47" fill="none"/>
    </g>
  </g>
</svg>
