<svg id="Component_4_1" data-name="Component 4 – 1" xmlns="http://www.w3.org/2000/svg" width="221" height="212" viewBox="0 0 221 212">
  <g id="Component_3_1" data-name="Component 3 – 1">
    <rect id="Rectangle_1271" data-name="Rectangle 1271" width="221" height="212" fill="#fff"/>
  </g>
  <g id="Group_2115" data-name="Group 2115" transform="translate(-74.803 -425.73)">
    <path id="Path_2577" data-name="Path 2577" d="M105.746,603.433l-5.891-36.528,29.284-4.723,5.891,36.528ZM101,567.733l5.573,34.553,27.31-4.4-5.573-34.554Z" fill="#000e24"/>
    <path id="Path_2578" data-name="Path 2578" d="M122.811,578.179l-1.667-7.461-.255.057a4.337,4.337,0,0,1-.753,1.192l.25-.056,1.45,6.49a4.293,4.293,0,0,1-3.163,5.17l-1.078.241a4.111,4.111,0,0,1-3.178-.593,4.412,4.412,0,0,1-1.883-2.745l-1.449-6.486.183-.04c-.206-.067-.324-.113-.324-.113-.107,1.309,1.195,3.449.1,3.533a.872.872,0,0,1-.23-.017l.746,3.341a5.408,5.408,0,0,0,2.31,3.363,5.092,5.092,0,0,0,3.944.733l1.081-.241h0A5.293,5.293,0,0,0,122.811,578.179Z" fill="#000e24"/>
    <path id="Path_2579" data-name="Path 2579" d="M110.973,577.746a1.368,1.368,0,0,1-1.033-.5c-.932-1.049-1.134-3.573-.933-4.6a1.782,1.782,0,0,1,1.342-1.493,3.436,3.436,0,0,1,2.229-2.216,11.482,11.482,0,0,1,4.555-.2c.312.029.614.057.9.076a5.119,5.119,0,0,0,2.748-.776l.418-.276.148.478c.9,2.94-1.6,5.238-4.493,6.212a9.481,9.481,0,0,1-5.512-.09,9.5,9.5,0,0,0,.257,1.118c.218.8.406,1.494.1,1.931a.8.8,0,0,1-.626.329C111.038,577.744,111,577.746,110.973,577.746Zm3.991-8.387a7.06,7.06,0,0,0-2.156.29,2.717,2.717,0,0,0-1.8,1.914l-.059.3h-.308a.993.993,0,0,0-.9.923c-.171.87.031,3.139.757,3.955a.589.589,0,0,0,.513.25c.178-.153-.028-.908-.139-1.314a5.8,5.8,0,0,1-.305-1.875l.041-.5.47.184a9.241,9.241,0,0,0,5.534.257c2.217-.747,4.53-2.436,4.125-4.818a5.5,5.5,0,0,1-2.759.639c-.292-.019-.6-.047-.917-.077C116.393,569.425,115.677,569.359,114.964,569.359Z" fill="#000e24"/>
    <path id="Path_2580" data-name="Path 2580" d="M109.81,598.767l-.316-1.663a9.031,9.031,0,0,1,7.3-10.579l3.237-.572a9.03,9.03,0,0,1,10.59,8.4l-1,.055a8.033,8.033,0,0,0-9.418-7.475l-3.237.572a8.029,8.029,0,0,0-6.493,9.407l.315,1.664Z" fill="#000e24"/>
    <path id="Path_2581" data-name="Path 2581" d="M237.556,527.881a17.883,17.883,0,0,1,10.71,15.438l-.4.192,1.4.267,0-.133a18.869,18.869,0,0,0-11.3-16.672,125.993,125.993,0,0,0-15.734-6.029c-2.178-.7-4.265-1.381-6.526-2.25v1.073c2.148.812,4.142,1.46,6.22,2.129A125.239,125.239,0,0,1,237.556,527.881Z" fill="#000e24"/>
    <g id="Group_2110" data-name="Group 2110">
      <path id="Path_2582" data-name="Path 2582" d="M171.459,605.061,104.88,615.377a8.038,8.038,0,0,1-9.176-6.714L88.9,564.744a8.051,8.051,0,0,1,6.715-9.178l77.976-12.082a8.039,8.039,0,0,1,9.177,6.714l.065.423.421-2.44a9.057,9.057,0,0,0-9.816-5.685L95.459,554.578A9.051,9.051,0,0,0,87.91,564.9l6.8,43.919a9.045,9.045,0,0,0,8.914,7.659,9.125,9.125,0,0,0,1.4-.109l66.426-10.292Z" fill="#000e24"/>
    </g>
    <path id="Path_2583" data-name="Path 2583" d="M175.242,610.4a4.288,4.288,0,0,1-4.284-4.284v-6.879a4.284,4.284,0,0,1,8.567,0v6.879A4.288,4.288,0,0,1,175.242,610.4Zm0-14.446a3.288,3.288,0,0,0-3.284,3.283v6.879a3.284,3.284,0,1,0,6.567,0v-6.879A3.286,3.286,0,0,0,175.242,595.952Z" fill="#000e24"/>
    <path id="Path_2584" data-name="Path 2584" d="M199.606,610.4c-2.362,0-4.284-2.227-4.284-4.966v-7.974c0-2.737,1.922-4.965,4.284-4.965s4.283,2.228,4.283,4.965v7.974C203.889,608.171,201.968,610.4,199.606,610.4Zm0-16.745a3.577,3.577,0,0,0-3.284,3.8v7.974a3.319,3.319,0,1,0,6.567,0v-7.974A3.577,3.577,0,0,0,199.606,593.653Z" fill="#000e24"/>
    <path id="Path_2585" data-name="Path 2585" d="M191.522,612.691a4.288,4.288,0,0,1-4.283-4.284V589.6a4.284,4.284,0,1,1,8.567,0v18.8A4.288,4.288,0,0,1,191.522,612.691Zm0-26.37a3.288,3.288,0,0,0-3.283,3.284v18.8a3.284,3.284,0,1,0,6.567,0V589.6A3.288,3.288,0,0,0,191.522,586.321Z" fill="#000e24"/>
    <g id="Group_2111" data-name="Group 2111">
      <path id="Path_2586" data-name="Path 2586" d="M185.689,531.12l-10.565,61.217,4.328.811v-1.017l-3.175-.595L186.5,532.294l95.02,18.156L271.6,609.39l-68.208-12.814v1.017l69.026,12.967,10.255-60.908Z" fill="#000e24"/>
    </g>
    <path id="Path_2587" data-name="Path 2587" d="M183.236,612.691a4.288,4.288,0,0,1-4.284-4.284V589.6a4.284,4.284,0,1,1,8.567,0v18.8A4.288,4.288,0,0,1,183.236,612.691Zm0-26.37a3.288,3.288,0,0,0-3.284,3.284v18.8a3.284,3.284,0,1,0,6.567,0V589.6A3.288,3.288,0,0,0,183.236,586.321Z" fill="#000e24"/>
    <path id="Path_2588" data-name="Path 2588" d="M215.213,509.7v10.664a28.647,28.647,0,0,1-22.388.024V509.963q-.509-.263-1-.554V521l.262.142a27.141,27.141,0,0,0,11.751,2.486,31.147,31.147,0,0,0,12.068-2.466l.307-.128V509.092C215.883,509.3,215.556,509.512,215.213,509.7Z" fill="#000e24"/>
    <path id="Path_2589" data-name="Path 2589" d="M224.24,463.188h.718V492.1a19.23,19.23,0,0,1-18.892,19.5h-4.554c-10.417,0-18.891-8.75-18.891-19.506V478.1a2.5,2.5,0,0,1-.5.2,1.044,1.044,0,0,1-.5-.023V492.1c0,11.306,8.923,20.506,19.891,20.506h4.56A20.23,20.23,0,0,0,225.958,492.1V462.188h-.746C224.9,462.53,224.581,462.866,224.24,463.188Z" fill="#000e24"/>
    <path id="Path_2590" data-name="Path 2590" d="M181.9,478.828a2.056,2.056,0,0,1-1.587-.9c-2.706-3.3-4.157-15.838-2.318-20.029,1.817-4.136,5.2-4.23,6.357-4.124a13.11,13.11,0,0,1,10.45-6.949c6.174-.567,12.489,1.462,18.056,3.254,1.237.4,2.432.783,3.572,1.121,5.949,1.762,12.34-.65,12.4-.676l.625-.24.053.668c.945,11.918-10.715,18.531-22.688,19.8-10.4,1.107-20.248-4.691-22.731-6.285a21.393,21.393,0,0,0,.155,6.556c.441,3.631.857,7.061-2.006,7.767A1.585,1.585,0,0,1,181.9,478.828Zm1.885-24.087c-1.19,0-3.5.439-4.874,3.562-1.66,3.781-.257,16.028,2.174,18.992.336.408.652.582.929.521,1.857-.458,1.708-2.826,1.241-6.672-.3-2.517-.651-5.37.052-7.63l.2-.659.562.4c.11.078,11.052,7.725,22.646,6.5,11.268-1.193,22.253-7.237,21.835-18.075-1.822.588-7.188,2.024-12.408.478-1.147-.34-2.35-.727-3.594-1.128-5.477-1.762-11.687-3.76-17.658-3.21a12.318,12.318,0,0,0-9.791,6.7l-.165.374-.4-.086A3.793,3.793,0,0,0,183.784,454.741Z" fill="#000e24"/>
    <line id="Line_57" data-name="Line 57" y1="5.113" x2="33.416" transform="translate(138.721 562.302)" fill="#fff" stroke="#fff" stroke-width="1"/>
    <rect id="Rectangle_1265" data-name="Rectangle 1265" width="33.804" height="1" transform="translate(138.645 566.923) rotate(-8.708)" fill="#000e24"/>
    <line id="Line_58" data-name="Line 58" y1="5.113" x2="33.416" transform="translate(140.247 572.275)" fill="#fff" stroke="#fff" stroke-width="1"/>
    <rect id="Rectangle_1266" data-name="Rectangle 1266" width="33.804" height="1" transform="translate(140.171 576.897) rotate(-8.708)" fill="#000e24"/>
    <line id="Line_59" data-name="Line 59" y1="5.113" x2="33.416" transform="translate(141.773 582.248)" fill="#fff" stroke="#fff" stroke-width="1"/>
    <rect id="Rectangle_1267" data-name="Rectangle 1267" width="33.804" height="1" transform="translate(141.698 586.87) rotate(-8.708)" fill="#000e24"/>
    <path id="Path_2591" data-name="Path 2591" d="M243.3,568.49c-.393,0-.787-.014-1.185-.044-4.8-.362-5.331-3.009-5.76-5.136-.355-1.762-.61-3.035-2.817-3.274-2.936-.314-5.609.959-8.2,2.193-2.235,1.067-4.547,2.17-7.023,2.244-3.073.116-3.227-2.231-3.378-4.473-.149-2.222-.319-4.738-2.858-6.28-5.042-3.067-10.888,5.256-10.947,5.341l-.822-.571c.261-.375,6.452-9.172,12.288-5.626,2.983,1.813,3.179,4.727,3.337,7.069.163,2.432.331,3.621,2.351,3.54,2.265-.067,4.381-1.077,6.622-2.147,2.711-1.294,5.519-2.63,8.733-2.284,2.934.317,3.335,2.312,3.69,4.07.417,2.074.811,4.032,4.854,4.336s7.929-1.153,11.352-2.44c3.36-1.264,6.532-2.456,9.356-1.829,5.653,1.256,6.288,3.5,6.342,3.747l-.977.209c0-.005-.567-1.865-5.582-2.98-2.534-.562-5.431.527-8.787,1.788C250.706,567.144,247.126,568.49,243.3,568.49Z" fill="#000e24"/>
    <path id="Path_2592" data-name="Path 2592" d="M237.261,584.67c-.253,0-.513-.006-.785-.02-3.687-.179-5.924-3.166-7.9-5.8-1.536-2.049-2.985-3.985-4.847-4.295-2.439-.4-4.446.734-6.767,2.055a21.986,21.986,0,0,1-6.189,2.679c-3.708.83-4.747-2.167-5.58-4.571-.524-1.511-1.018-2.937-2.01-3.236-2.67-.791-4.926,2.375-4.949,2.408l-.821-.572c.108-.155,2.692-3.806,6.057-2.793,1.483.445,2.085,2.184,2.668,3.866.981,2.832,1.765,4.512,4.418,3.922a20.884,20.884,0,0,0,5.911-2.572c2.383-1.355,4.634-2.637,7.426-2.173,2.258.376,3.824,2.468,5.483,4.682,1.932,2.578,3.929,5.244,7.147,5.4a12.022,12.022,0,0,0,6.434-1.433,12.178,12.178,0,0,1,6.561-1.472l-.051,1a11.352,11.352,0,0,0-6.087,1.38A12.97,12.97,0,0,1,237.261,584.67Z" fill="#000e24"/>
    <path id="Path_2593" data-name="Path 2593" d="M196.208,482.666h-1a2.051,2.051,0,1,0-4.1,0h-1a3.051,3.051,0,1,1,6.1,0Z" fill="#000e24"/>
    <path id="Path_2594" data-name="Path 2594" d="M217.475,482.666h-1a2.051,2.051,0,1,0-4.1,0h-1a3.051,3.051,0,1,1,6.1,0Z" fill="#000e24"/>
    <path id="Path_2595" data-name="Path 2595" d="M200.739,501.287v.5a3.051,3.051,0,1,0,6.1,0v-.5Zm3.051,2.551a2.055,2.055,0,0,1-1.989-1.551h3.979A2.055,2.055,0,0,1,203.79,503.838Z" fill="#000e24"/>
    <line id="Line_60" data-name="Line 60" x2="5.503" y2="1.605" transform="translate(215.119 474.497)" fill="#fff" stroke="#fff" stroke-width="1"/>
    <rect id="Rectangle_1268" data-name="Rectangle 1268" width="1.001" height="5.733" transform="translate(214.979 474.978) rotate(-73.746)" fill="#000e24"/>
    <line id="Line_61" data-name="Line 61" x1="5.503" y2="1.605" transform="translate(188.725 474.952)" fill="#fff" stroke="#fff" stroke-width="1"/>
    <rect id="Rectangle_1269" data-name="Rectangle 1269" width="5.733" height="1.001" transform="translate(188.584 476.077) rotate(-16.26)" fill="#000e24"/>
    <line id="Line_62" data-name="Line 62" y2="17.197" transform="translate(203.79 477.822)" fill="#fff" stroke="#fff" stroke-width="1"/>
    <rect id="Rectangle_1270" data-name="Rectangle 1270" width="1" height="17.198" transform="translate(203.29 477.821)" fill="#000e24"/>
    <path id="Path_2596" data-name="Path 2596" d="M192.261,519.287c-.886.113-21.8,2.884-29.031,12.111a25.013,25.013,0,0,0-5.28,14l1.01-.156a23.945,23.945,0,0,1,5.058-13.229c6.711-8.568,26.566-11.487,28.307-11.731V519.27Z" fill="#000e24"/>
  </g>
</svg>
