<svg id="Component_2_1" data-name="Component 2 – 1" xmlns="http://www.w3.org/2000/svg" width="73" height="87" viewBox="0 0 73 87">
  <g id="Rectangle_1201" data-name="Rectangle 1201" transform="translate(0 43)" fill="#eee" stroke="#707070" stroke-width="0.5">
    <rect width="73" height="44" rx="6" stroke="none"/>
    <rect x="0.25" y="0.25" width="72.5" height="43.5" rx="5.75" fill="none"/>
  </g>
  <g id="Rectangle_1204" data-name="Rectangle 1204" fill="#fafafa" stroke="#707070" stroke-width="0.5">
    <rect width="73" height="43" rx="6" stroke="none"/>
    <rect x="0.25" y="0.25" width="72.5" height="42.5" rx="5.75" fill="none"/>
  </g>
  <g id="Group_1868" data-name="Group 1868" transform="translate(8.713 51.068)">
    <line id="Line_13" data-name="Line 13" x2="23.984" transform="translate(32.207 8.149)" fill="none" stroke="#333" stroke-width="1"/>
    <line id="Line_14" data-name="Line 14" x2="23.984" transform="translate(32.207 14.338)" fill="none" stroke="#333" stroke-width="1"/>
    <line id="Line_15" data-name="Line 15" x2="23.984" transform="translate(32.207 20.527)" fill="none" stroke="#333" stroke-width="1"/>
    <g id="woman" transform="translate(3.404 3.151)">
      <g id="Group_1867" data-name="Group 1867" transform="translate(0 0)">
        <path id="Path_2525" data-name="Path 2525" d="M86.115,15.519a2.141,2.141,0,0,0-1.631-1.676h0l-3.272-.811v-.115h2.5a.935.935,0,0,0,.934-.934V7.216a1.168,1.168,0,0,0,0-.539V4.938a.317.317,0,0,0-.635,0v.911a1.648,1.648,0,0,0-.565-.207.828.828,0,0,0-.7-.638,1.034,1.034,0,0,1-.818-.629A.544.544,0,0,0,81,4.289,5.807,5.807,0,0,1,76.322,6.7c-.2,0-.334-.009-.381-.012a.839.839,0,0,0-.888.838v.729a4.3,4.3,0,0,0,1.326,3.1,4.25,4.25,0,0,0,.917.667v.264H74.808a.3.3,0,0,1-.3-.3V4.852A4.215,4.215,0,0,1,78.67.635h.022a5.408,5.408,0,0,1,2.4.59c.407.225.658.046,1.06.046a2.112,2.112,0,0,1,1.86,1.915c0,.013,0,.066,0,.27a.324.324,0,0,0,.318.317.317.317,0,0,0,.317-.318c0-.056,0-.277,0-.329A2.737,2.737,0,0,0,82.151.637c-.5,0-.581.128-.753.033A6.091,6.091,0,0,0,78.7,0a4.848,4.848,0,0,0-4.822,4.851v7.131a.935.935,0,0,0,.934.934H77.3v.115l-3.259.808-.013,0-.238.07-.021.007a2.106,2.106,0,0,0-1.372,1.6c-.966,4.852-.925,4.645-.928,4.661a1.19,1.19,0,0,0,1.287,1.481h3.432a.317.317,0,1,0,0-.635H74.989V18.034a.317.317,0,0,0-.635,0v2.993h-1.6c-.422,0-.666-.136-.67-.579,0-.216-.01-.005.934-4.805a1.487,1.487,0,0,1,.962-1.124l.22-.065,1.872-.464c2.082,2.453,1.959,2.323,2.079,2.44a1.538,1.538,0,0,0,2.339-.136l1.96-2.3,1.865.462a1.538,1.538,0,0,1,1.182,1.189c.936,4.758.936,4.588.934,4.805,0,.434-.238.579-.67.579H84.165V18.034a.317.317,0,1,0-.635,0v2.993H77.664a.317.317,0,1,0,0,.635h8.092a1.166,1.166,0,0,0,1.305-1.208C87.064,20.091,87.042,20.264,86.115,15.519ZM83.466,6.3a.8.8,0,0,1,.544.469v.364a.8.8,0,0,1-.544.469Zm0,2.012V8.249a1.644,1.644,0,0,0,.544-.2v3.938a.3.3,0,0,1-.3.3h-2.5v-.245A4.2,4.2,0,0,0,83.466,8.307Zm-6.649,2.585a3.667,3.667,0,0,1-1.13-2.641c.019-.691-.046-.775.065-.879a.2.2,0,0,1,.151-.055,6.375,6.375,0,0,0,5.525-2.538,1.628,1.628,0,0,0,1.238.852.191.191,0,0,1,.166.188V8.308A3.564,3.564,0,0,1,76.817,10.893ZM80,15.883a.918.918,0,0,1-1.5,0l-.662-.782h2.832Zm1.208-1.419H77.3l-.545-.644.934-.232a.321.321,0,0,0,.241-.311V12.3a4.2,4.2,0,0,0,2.646.009,5.677,5.677,0,0,0,.018,1.081.317.317,0,0,0,.223.2l.94.233Z" transform="translate(-71.445 -0.001)" fill="#333"/>
      </g>
    </g>
    <g id="Rectangle_1202" data-name="Rectangle 1202" transform="translate(0.287 -0.068)" fill="none" stroke="#333" stroke-width="1">
      <rect width="23" height="28" stroke="none"/>
      <rect x="0.5" y="0.5" width="22" height="27" fill="none"/>
    </g>
  </g>
  <line id="Line_16" data-name="Line 16" x2="23.984" transform="translate(24.961 6.958)" fill="none" stroke="#333" stroke-width="1"/>
  <line id="Line_17" data-name="Line 17" x2="10.759" transform="translate(31.109 11.134)" fill="none" stroke="#333" stroke-width="1"/>
</svg>
