<svg xmlns="http://www.w3.org/2000/svg" width="27.776" height="23.756" viewBox="0 0 27.776 23.756">
  <g id="Group_2741" data-name="Group 2741" transform="translate(0 0)">
    <g id="Group_2740" data-name="Group 2740">
      <path id="Path_6540" data-name="Path 6540" d="M481.15,598.044l-.773.891v-8.677a.927.927,0,1,0-1.853,0v8.675l-.772-.889a.927.927,0,0,0-1.4,1.215l2.334,2.687a1,1,0,0,0,.765.357l.476-.025,2.622-3.019a.927.927,0,0,0-1.4-1.215Z" transform="translate(-465.562 -589.331)" fill="#fafafa"/>
      <path id="Path_6541" data-name="Path 6541" d="M488.95,596.831H468.28a3.557,3.557,0,0,1-3.553-3.554v-12.03a3.557,3.557,0,0,1,3.553-3.553H473.6a.927.927,0,0,1,0,1.853H468.28a1.7,1.7,0,0,0-1.7,1.7v6.983h24.07v-6.983a1.7,1.7,0,0,0-1.7-1.7H483.22a.927.927,0,0,1,0-1.853h5.731a3.557,3.557,0,0,1,3.553,3.553v12.03A3.558,3.558,0,0,1,488.95,596.831Zm-22.37-6.747v3.193a1.7,1.7,0,0,0,1.7,1.7h20.67a1.7,1.7,0,0,0,1.7-1.7v-3.193Z" transform="translate(-464.727 -573.074)" fill="#fafafa"/>
    </g>
  </g>
</svg>
