<svg id="withdraw_1_" data-name="withdraw (1)" xmlns="http://www.w3.org/2000/svg" width="16.577" height="15.577" viewBox="0 0 16.577 15.577">
  <g id="Group_2640" data-name="Group 2640">
    <g id="Group_2639" data-name="Group 2639">
      <path id="Path_2551" data-name="Path 2551" d="M171.725,260.465l-1.2,1.182v-5a.648.648,0,1,0-1.3,0v4.935l-1.131-1.118a.648.648,0,0,0-.91.921l1.347,1.331a1.938,1.938,0,0,0,2.75,0l1.347-1.331a.648.648,0,0,0-.91-.921Z" transform="translate(-161.593 -247.711)" fill="#fafafa"/>
      <path id="Path_2552" data-name="Path 2552" d="M321.7,276a.648.648,0,0,0-.648.648,1.3,1.3,0,0,1-1.3,1.3h-3.108a.648.648,0,0,0,0,1.3h3.108a2.593,2.593,0,0,0,2.59-2.59A.648.648,0,0,0,321.7,276Z" transform="translate(-305.769 -267.064)" fill="#fafafa"/>
      <path id="Path_2554" data-name="Path 2554" d="M13.987,0H2.59A2.593,2.593,0,0,0,0,2.59V9.584a2.593,2.593,0,0,0,2.59,2.59H5.7a.648.648,0,1,0,0-1.3H2.59a1.3,1.3,0,0,1-1.3-1.3V2.59a1.3,1.3,0,0,1,1.3-1.3h11.4a1.3,1.3,0,0,1,1.3,1.3V6.346a.648.648,0,0,0,1.3,0V2.59A2.593,2.593,0,0,0,13.987,0Z" fill="#fafafa"/>
      <line id="Line_136" data-name="Line 136" x2="16" transform="translate(0.224 4.995)" fill="none" stroke="#fafafa" stroke-width="1"/>
    </g>
  </g>
</svg>
