<svg height="512" viewBox="0 0 64 64" width="512" xmlns="http://www.w3.org/2000/svg"><path d="m57 39v-6a3.009 3.009 0 0 0 -3-3h-43a3.009 3.009 0 0 0 -3 3v26a3.009 3.009 0 0 0 3 3h43a3.009 3.009 0 0 0 3-3v-6a5 5 0 0 0 5-5v-4a5 5 0 0 0 -5-5zm-2 20a1 1 0 0 1 -1 1h-43a1 1 0 0 1 -1-1v-26a1 1 0 0 1 1-1h43a1 1 0 0 1 1 1v6h-6a5 5 0 0 0 -5 5v4a5 5 0 0 0 5 5h6zm5-11a3.009 3.009 0 0 1 -3 3h-8a3.009 3.009 0 0 1 -3-3v-4a3.009 3.009 0 0 1 3-3h8a3.009 3.009 0 0 1 3 3z"/><path d="m51 43a3 3 0 1 0 3 3 3 3 0 0 0 -3-3zm0 4a1 1 0 1 1 1-1 1 1 0 0 1 -1 1z"/><path d="m32 7a9 9 0 1 0 9 9 9.014 9.014 0 0 0 -9-9zm0 16a7 7 0 1 1 7-7 7.008 7.008 0 0 1 -7 7z"/><path d="m33 15v-2a1 1 0 0 1 1 1h2a3.009 3.009 0 0 0 -3-3v-1h-2v1a3 3 0 0 0 0 6v2a1 1 0 0 1 -1-1h-2a3.009 3.009 0 0 0 3 3v1h2v-1a3 3 0 0 0 0-6zm-2 0a1 1 0 0 1 0-2zm2 4v-2a1 1 0 0 1 0 2z"/><path d="m11 2a9 9 0 1 0 9 9 9.014 9.014 0 0 0 -9-9zm0 16a7 7 0 1 1 7-7 7.008 7.008 0 0 1 -7 7z"/><path d="m12 17v-1a3 3 0 0 0 0-6v-2a1 1 0 0 1 1 1h2a3 3 0 0 0 -3-3v-1h-2v1a3 3 0 0 0 0 6v2a1 1 0 0 1 -1-1h-2a3 3 0 0 0 3 3v1zm-3-8a1 1 0 0 1 1-1v2a1 1 0 0 1 -1-1zm3 3a1 1 0 0 1 0 2z"/><path d="m53 2a9 9 0 1 0 9 9 9.014 9.014 0 0 0 -9-9zm0 16a7 7 0 1 1 7-7 7.008 7.008 0 0 1 -7 7z"/><path d="m54 10v-2a1 1 0 0 1 1 1h2a3.009 3.009 0 0 0 -3-3v-1h-2v1a3 3 0 0 0 0 6v2a1 1 0 0 1 -1-1h-2a3.009 3.009 0 0 0 3 3v1h2v-1a3 3 0 0 0 0-6zm-2 0a1 1 0 0 1 0-2zm2 4v-2a1 1 0 0 1 0 2z"/><path d="m8 22h2v2h-2z"/><path d="m8 26h2v2h-2z"/><path d="m12 22h2v2h-2z"/><path d="m54 22h2v2h-2z"/><path d="m54 26h2v2h-2z"/><path d="m50 22h2v2h-2z"/><path d="m31 26h2v2h-2z"/><path d="m13 35h2v22h-2z"/></svg>