<svg id="Group_2743" data-name="Group 2743" xmlns="http://www.w3.org/2000/svg" width="26.81" height="23.79" viewBox="0 0 26.81 23.79">
  <path id="Path_6544" data-name="Path 6544" d="M549.048,584.669H547.89v-3.3a3.679,3.679,0,0,0-3.674-3.674H529.584a3.678,3.678,0,0,0-3.673,3.674v10.476a3.678,3.678,0,0,0,3.673,3.674H537.7l-.918.8a.958.958,0,1,0,1.255,1.447l2.779-2.413a1.031,1.031,0,0,0,.369-.789l-.027-.493-3.121-2.71a.958.958,0,0,0-1.255,1.447l.92.8h-8.114a1.759,1.759,0,0,1-1.757-1.758V581.368a1.759,1.759,0,0,1,1.757-1.758h14.632a1.761,1.761,0,0,1,1.758,1.758v3.3H534.417a3.74,3.74,0,0,0-3.674,3.8v2.581a.958.958,0,1,0,1.916,0v-2.581a1.823,1.823,0,0,1,1.758-1.88h14.631a1.823,1.823,0,0,1,1.758,1.88v9.224a1.824,1.824,0,0,1-1.758,1.88H534.417a1.824,1.824,0,0,1-1.758-1.88.958.958,0,1,0-1.916,0,3.74,3.74,0,0,0,3.674,3.8h14.631a3.74,3.74,0,0,0,3.674-3.8v-9.224A3.74,3.74,0,0,0,549.048,584.669Z" transform="translate(-525.911 -577.694)" fill="#fafafa"/>
</svg>
