<svg id="Group_2621" data-name="Group 2621" xmlns="http://www.w3.org/2000/svg" width="28.868" height="26.358" viewBox="0 0 28.868 26.358">
  <path id="Path_6498" data-name="Path 6498" d="M26.985,33.719V30.733a2.827,2.827,0,0,0-2.824-2.824H20.518L14.432,22.5a.941.941,0,0,0-1.251,0l-6.087,5.41H4.707A4.712,4.712,0,0,0,0,32.616v11.3a4.712,4.712,0,0,0,4.707,4.707H24.161a2.827,2.827,0,0,0,2.824-2.824V42.808a2.828,2.828,0,0,0,1.883-2.662V36.381A2.828,2.828,0,0,0,26.985,33.719ZM13.806,24.462l3.878,3.447H9.928ZM25.1,45.794a.942.942,0,0,1-.941.941H4.707a2.827,2.827,0,0,1-2.824-2.824v-11.3a2.827,2.827,0,0,1,2.824-2.824H24.161a.942.942,0,0,1,.941.941v2.824H22.278a4.707,4.707,0,0,0,0,9.413H25.1Zm1.883-5.648a.942.942,0,0,1-.941.941H22.278a2.824,2.824,0,0,1,0-5.648h3.765a.942.942,0,0,1,.941.941Z" transform="translate(0 -22.261)" fill="#fff"/>
</svg>
