<svg id="currency-exchange" xmlns="http://www.w3.org/2000/svg" width="13.719" height="15.61" viewBox="0 0 13.719 15.61">
  <path id="Path_6499" data-name="Path 6499" d="M212.555,170.708a1.718,1.718,0,0,0,.7.291v.263a.478.478,0,0,0,.956,0v-.328a1.341,1.341,0,0,0,.03-2.531,3.342,3.342,0,0,1-.708-.314c-.355-.262.1-.689.619-.287a.478.478,0,1,0,.648-.7,1.371,1.371,0,0,0-.589-.349v-.267a.478.478,0,0,0-.956,0v.283a1.2,1.2,0,0,0-.424,2.01,3.488,3.488,0,0,0,.924.467c.172.063.511.135.391.505a.459.459,0,0,1-.252.286.932.932,0,0,1-.813-.126.478.478,0,0,0-.523.8Z" transform="translate(-206.869 -161.067)" fill="#fff"/>
  <path id="Path_6500" data-name="Path 6500" d="M44.533,12.494l-1.425-1.018a6.34,6.34,0,0,0,1.159-3.671A6.409,6.409,0,0,0,37.92,1.4a27.374,27.374,0,0,0-2.8-.031V.458A.458.458,0,0,0,34.4.086L31.2,2.372a.457.457,0,0,0,0,.744L32.62,4.133a6.4,6.4,0,0,0,5.245,10.074v0a27.354,27.354,0,0,0,2.744.033v.915a.458.458,0,0,0,.723.372l3.2-2.286a.458.458,0,0,0,0-.744ZM34.206,1.346V1.83a.457.457,0,0,0,.457.457h2.754a2.091,2.091,0,0,1,2.244,1.842A3.205,3.205,0,0,0,37.407,3.2H34.663a.457.457,0,0,0-.457.457v.483l-1.957-1.4Zm-.842,3.318L34.4,5.4a.458.458,0,0,0,.723-.372V4.116h2.287A2.29,2.29,0,0,1,39.564,5.64a.457.457,0,0,0,.862,0,3.462,3.462,0,0,0-.273-2.823,5.488,5.488,0,0,1,2.21,8.126l-1.032-.737a.458.458,0,0,0-.723.372v.915H38.322A2.29,2.29,0,0,1,36.166,9.97a.457.457,0,0,0-.862,0,3.2,3.2,0,0,0,.373,2.868,5.493,5.493,0,0,1-2.312-8.172Zm8.159,9.6V13.78a.457.457,0,0,0-.457-.457H38.322a2.291,2.291,0,0,1-2.241-1.83,3.206,3.206,0,0,0,2.241.915h2.744a.457.457,0,0,0,.457-.457v-.483l1.957,1.4Z" transform="translate(-31.005 0)" fill="#fff"/>
</svg>
