<svg id="Group_2742" data-name="Group 2742" xmlns="http://www.w3.org/2000/svg" width="28.062" height="24" viewBox="0 0 28.062 24">
  <g id="Group_2739" data-name="Group 2739">
    <path id="Path_6542" data-name="Path 6542" d="M445.861,577.694H424.979a3.618,3.618,0,0,0-3.59,3.636v12.307a3.617,3.617,0,0,0,3.59,3.635h5.378a.948.948,0,0,0,0-1.9h-5.378a1.73,1.73,0,0,1-1.718-1.739v-7.144h24.317v7.144a1.73,1.73,0,0,1-1.718,1.739h-5.79a.948.948,0,0,0,0,1.9h5.79a3.617,3.617,0,0,0,3.59-3.635V581.33A3.618,3.618,0,0,0,445.861,577.694Zm-22.6,6.9V581.33a1.731,1.731,0,0,1,1.718-1.74h20.881a1.731,1.731,0,0,1,1.718,1.74V584.6Z" transform="translate(-421.389 -577.694)" fill="#fafafa"/>
    <path id="Path_6543" data-name="Path 6543" d="M436.686,601.427a.957.957,0,0,1-.715.321l-.457-.023L433,598.834a.887.887,0,0,1,1.339-1.163l.74.852v-8.3a.887.887,0,0,1,1.774,0v8.3l.74-.852a.887.887,0,0,1,1.34,1.163Z" transform="translate(-421.94 -577.748)" fill="#fafafa"/>
  </g>
</svg>
