<svg xmlns="http://www.w3.org/2000/svg" width="20.568" height="20.568" viewBox="0 0 20.568 20.568">
  <g id="extensible-markup-language" transform="translate(0 0)">
    <path id="Path_6552" data-name="Path 6552" d="M318.025,301.507c-.058-.194-.3-.284-.542-.284a.524.524,0,0,0-.536.284l-1.246,4.06a.374.374,0,0,0-.013.065c0,.207.3.349.529.349.142,0,.252-.045.284-.168l.245-.859h1.478l.245.859c.032.123.142.168.284.168.226,0,.529-.148.529-.349a.284.284,0,0,0-.013-.065Zm-1.1,2.788.561-1.981.562,1.981Zm0,0" transform="translate(-303.006 -289.122)" fill="#fafafa"/>
    <path id="Path_6553" data-name="Path 6553" d="M18.352,8.391H12.177V5.753L14.184,4.32a.6.6,0,0,0,0-.981L12.153,1.889A2.22,2.22,0,0,0,9.961,0H2.216A2.219,2.219,0,0,0,0,2.216V9.961a2.219,2.219,0,0,0,2.216,2.216H8.391v2.637L6.384,16.248a.6.6,0,0,0,0,.981l2.031,1.451a2.22,2.22,0,0,0,2.192,1.889h7.745a2.219,2.219,0,0,0,2.216-2.216V10.607a2.219,2.219,0,0,0-2.216-2.216ZM2.216,10.972A1.012,1.012,0,0,1,1.205,9.961V2.216A1.012,1.012,0,0,1,2.216,1.205H9.961a1.012,1.012,0,0,1,1.011,1.011.6.6,0,0,0,.252.49L12.8,3.83,11.224,4.953a.6.6,0,0,0-.252.49V8.39h-.365a2.219,2.219,0,0,0-2.216,2.216v.366Zm17.147,7.38a1.012,1.012,0,0,1-1.011,1.011H10.607A1.012,1.012,0,0,1,9.6,18.352a.6.6,0,0,0-.252-.49L7.771,16.738l1.573-1.123a.6.6,0,0,0,.252-.49V10.607A1.012,1.012,0,0,1,10.607,9.6h7.745a1.012,1.012,0,0,1,1.011,1.011Zm0,0" fill="#fafafa"/>
    <path id="Path_6554" data-name="Path 6554" d="M101.062,94.2a.34.34,0,0,0,0-.68H99.55v-.825a.34.34,0,1,0-.68,0v.825H97.359a.34.34,0,0,0,0,.68h.468a3.241,3.241,0,0,0,.85,1.868,2.558,2.558,0,0,1-1.318.364.34.34,0,0,0,0,.68,3.232,3.232,0,0,0,1.851-.581,3.233,3.233,0,0,0,1.852.581.34.34,0,0,0,0-.68,2.555,2.555,0,0,1-1.318-.364,3.241,3.241,0,0,0,.85-1.868ZM99.21,95.644a2.566,2.566,0,0,1-.7-1.444h1.4A2.566,2.566,0,0,1,99.21,95.644Zm0,0" transform="translate(-93.122 -88.645)" fill="#fafafa"/>
  </g>
</svg>
