<svg xmlns="http://www.w3.org/2000/svg" width="15.774" height="15.722" viewBox="0 0 15.774 15.722">
  <g id="logout_2_" data-name="logout (2)" transform="translate(0 -0.85)">
    <g id="Group_2886" data-name="Group 2886" transform="translate(0 0.85)">
      <g id="Group_2885" data-name="Group 2885">
        <path id="Path_6599" data-name="Path 6599" d="M7.861,15.261h-5.9a.655.655,0,0,1-.655-.655V2.815a.655.655,0,0,1,.655-.655h5.9a.655.655,0,0,0,0-1.31h-5.9A1.968,1.968,0,0,0,0,2.815V14.606a1.968,1.968,0,0,0,1.965,1.965h5.9a.655.655,0,0,0,0-1.31Z" transform="translate(0 -0.85)" fill="#fff"/>
      </g>
    </g>
    <g id="Group_2888" data-name="Group 2888" transform="translate(5.241 4.125)">
      <g id="Group_2887" data-name="Group 2887">
        <path id="Path_6600" data-name="Path 6600" d="M180.438,111.284l-3.983-3.93a.655.655,0,0,0-.92.933l2.846,2.809h-7.627a.655.655,0,0,0,0,1.31h7.627l-2.846,2.809a.655.655,0,1,0,.92.933l3.983-3.93a.655.655,0,0,0,0-.933Z" transform="translate(-170.1 -107.165)" fill="#fff"/>
      </g>
    </g>
  </g>
</svg>
