
<svg xmlns="http://www.w3.org/2000/svg" id="Out_line" data-name="Out line" viewBox="0 0 512 512" width="512" height="512"><title>money-dollars-payment-card</title><path d="M452.293,275.57812,408.707,144.82031A47.927,47.927,0,0,0,368,112.25049V64h48a8.00039,8.00039,0,0,0,8-8V16H408V48H88V16H72V56a8.00039,8.00039,0,0,0,8,8h48V336a8.00039,8.00039,0,0,0,8,8h90.584l41.6001,104H248a8.00039,8.00039,0,0,0-8,8v40h16V464H424v32h16V456a8.00039,8.00039,0,0,0-8-8h-6.33252l28.23975-148.26074A48.108,48.108,0,0,0,452.293,275.57812ZM311.48218,64a63.982,63.982,0,0,1-126.96436,0Zm-143.0813,0a80.00014,80.00014,0,0,0,159.19824,0H352V244.68652l-16.40137-16.40234a41.94165,41.94165,0,0,0-59.31445,59.31445l12.31372,12.31348A79.80581,79.80581,0,0,0,280.40234,328H215.59912A80.14141,80.14141,0,0,0,144,256.40088V64Zm148.2854,264h-20.179a63.86356,63.86356,0,0,1,4.16163-16.01709ZM144,272.51782A64.10538,64.10538,0,0,1,199.48218,328H144Zm294.19043,24.2273L409.38037,448H285.416l-41.6001-104H319.1936a86.93036,86.93036,0,0,0-10.30883,74.418l15.252-4.83594a71.013,71.013,0,0,1,17.52051-71.9248,8.00122,8.00122,0,0,0,0-11.31446l-54.0586-54.05859a25.9406,25.9406,0,1,1,36.68555-36.68555l30.05859,30.0586,24,24,11.31446-11.31446L368,260.68555V128.36328a31.95457,31.95457,0,0,1,25.52734,21.51758l43.58594,130.75781A32.07418,32.07418,0,0,1,438.19043,296.74512Z"/></svg>
