<svg id="withdraw" xmlns="http://www.w3.org/2000/svg" width="17.557" height="15.61" viewBox="0 0 17.557 15.61">
  <path id="withdraw-2" data-name="withdraw" d="M15.858,27.5H1.7A1.7,1.7,0,0,0,0,29.2v8.5a1.7,1.7,0,0,0,1.7,1.7H6.8a.566.566,0,1,0,0-1.133H4.49A3.973,3.973,0,0,0,1.133,34.9V31.99A3.973,3.973,0,0,0,4.49,28.633h8.577a3.973,3.973,0,0,0,3.358,3.357V34.9a3.973,3.973,0,0,0-3.358,3.357H10.761a.566.566,0,1,0,0,1.133h5.1a1.7,1.7,0,0,0,1.7-1.7V29.2A1.7,1.7,0,0,0,15.858,27.5ZM3.341,38.261H1.7a.567.567,0,0,1-.566-.566V36.052A2.84,2.84,0,0,1,3.341,38.261Zm-2.208-7.42V29.2a.567.567,0,0,1,.566-.566H3.341A2.84,2.84,0,0,1,1.133,30.841Zm13.083-2.208h1.642a.567.567,0,0,1,.566.566v1.642A2.84,2.84,0,0,1,14.216,28.633Zm1.642,9.628H14.216a2.84,2.84,0,0,1,2.208-2.208v1.642A.567.567,0,0,1,15.858,38.261Zm-3.964-4.814a3.115,3.115,0,1,0-3.115,3.115A3.119,3.119,0,0,0,11.893,33.447Zm-5.1,0a1.982,1.982,0,1,1,1.982,1.982A1.984,1.984,0,0,1,6.8,33.447ZM4.248,32.88a.566.566,0,1,1,0,1.133H3.964a.566.566,0,1,1,0-1.133Zm9.062,1.133a.566.566,0,1,1,0-1.133h.283a.566.566,0,1,1,0,1.133Zm-2.962,6.962a.566.566,0,0,1,0,.8L9.179,42.944a.566.566,0,0,1-.8,0L7.21,41.776a.566.566,0,0,1,.8-.8l.2.2v-2.7a.566.566,0,1,1,1.133,0v2.7l.2-.2a.566.566,0,0,1,.8,0Z" transform="translate(0 -27.5)" fill="#fff"/>
</svg>
