<svg id="deposit" xmlns="http://www.w3.org/2000/svg" width="15.812" height="14.437" viewBox="0 0 15.812 14.437">
  <g id="Group_2622" data-name="Group 2622">
    <g id="Group_2621" data-name="Group 2621" transform="translate(0 0)">
      <path id="Path_6498" data-name="Path 6498" d="M14.781,28.537V26.9a1.549,1.549,0,0,0-1.547-1.547h-2L7.9,22.391a.516.516,0,0,0-.685,0L3.886,25.354H2.578A2.581,2.581,0,0,0,0,27.932V34.12A2.581,2.581,0,0,0,2.578,36.7H13.234a1.549,1.549,0,0,0,1.547-1.547V33.515a1.549,1.549,0,0,0,1.031-1.458V29.995A1.549,1.549,0,0,0,14.781,28.537Zm-7.218-5.07,2.124,1.888H5.438Zm6.187,11.685a.516.516,0,0,1-.516.516H2.578A1.549,1.549,0,0,1,1.031,34.12V27.932a1.549,1.549,0,0,1,1.547-1.547H13.234a.516.516,0,0,1,.516.516v1.547H12.2a2.578,2.578,0,0,0,0,5.156h1.547Zm1.031-3.094a.516.516,0,0,1-.516.516H12.2a1.547,1.547,0,0,1,0-3.094h2.062a.516.516,0,0,1,.516.516Z" transform="translate(0 -22.261)" fill="#fff"/>
    </g>
  </g>
  <g id="Group_2624" data-name="Group 2624" transform="translate(11.687 8.25)">
    <g id="Group_2623" data-name="Group 2623" transform="translate(0 0)">
      <circle id="Ellipse_71" data-name="Ellipse 71" cx="0.516" cy="0.516" r="0.516" fill="#fff"/>
    </g>
  </g>
</svg>
