<svg id="Layer_1" enable-background="new 0 0 512 512" height="512" viewBox="0 0 512 512" width="512" xmlns="http://www.w3.org/2000/svg"><g id="XMLID_1658_"><g id="XMLID_221_"><path id="XMLID_222_" d="m120 223.946c7.261 0 13.169 4.947 13.169 11.027 0 5.522 4.477 10 10 10s10-4.478 10-10c0-13.849-9.752-25.606-23.169-29.583v-1.39c0-5.522-4.477-10-10-10s-10 4.478-10 10v1.39c-13.417 3.978-23.169 15.734-23.169 29.583 0 17.109 14.879 31.027 33.169 31.027 7.261 0 13.169 4.946 13.169 11.026s-5.908 11.027-13.169 11.027-13.169-4.947-13.169-11.027c0-5.522-4.477-10-10-10s-10 4.478-10 10c0 13.849 9.752 25.606 23.169 29.583v1.391c0 5.522 4.477 10 10 10s10-4.478 10-10v-1.39c13.417-3.978 23.169-15.734 23.169-29.583 0-17.109-14.879-31.027-33.169-31.027-7.261 0-13.169-4.946-13.169-11.026s5.908-11.028 13.169-11.028z"/><path id="XMLID_242_" d="m240 256c0-15.199-2.806-30.016-8.341-44.037-2.028-5.138-7.834-7.657-12.973-5.631-5.137 2.027-7.658 7.836-5.63 12.973 4.608 11.674 6.944 24.02 6.944 36.695 0 55.141-44.86 100-100 100s-100-44.86-100-100 44.86-100 100-100c12.599 0 24.876 2.31 36.492 6.864 5.141 2.018 10.944-.517 12.96-5.659 2.017-5.142-.517-10.944-5.659-12.96-13.951-5.471-28.685-8.245-43.793-8.245-66.168 0-120 53.832-120 120s53.832 120 120 120 120-53.832 120-120z"/><path id="XMLID_243_" d="m392 223.946c7.261 0 13.169 4.947 13.169 11.027 0 5.522 4.477 10 10 10s10-4.478 10-10c0-13.849-9.752-25.606-23.169-29.583v-1.39c0-5.522-4.477-10-10-10s-10 4.478-10 10v1.39c-13.417 3.978-23.169 15.734-23.169 29.583 0 17.109 14.879 31.027 33.169 31.027 7.261 0 13.169 4.946 13.169 11.026s-5.908 11.027-13.169 11.027-13.169-4.947-13.169-11.027c0-5.522-4.477-10-10-10s-10 4.478-10 10c0 13.849 9.752 25.606 23.169 29.583v1.391c0 5.522 4.477 10 10 10s10-4.478 10-10v-1.39c13.417-3.978 23.169-15.734 23.169-29.583 0-17.109-14.879-31.027-33.169-31.027-7.261 0-13.169-4.946-13.169-11.026s5.908-11.028 13.169-11.028z"/><path id="XMLID_676_" d="m392 136c-66.168 0-120 53.832-120 120s53.832 120 120 120 120-53.832 120-120-53.832-120-120-120zm0 220c-55.14 0-100-44.859-100-100s44.86-100 100-100 100 44.859 100 100-44.86 100-100 100z"/><path id="XMLID_677_" d="m341.616 402.561c-3.905-3.904-10.237-3.904-14.143 0-3.905 3.905-3.905 10.237 0 14.143l4.005 4.005h-175.1c-5.523 0-10 4.478-10 10s4.477 10 10 10h175.1l-4.005 4.005c-3.905 3.905-3.905 10.237 0 14.143 1.953 1.952 4.512 2.929 7.071 2.929s5.119-.977 7.071-2.929l21.076-21.076c3.905-3.905 3.905-10.237 0-14.143z"/><path id="XMLID_678_" d="m170.384 109.438c1.953 1.952 4.512 2.929 7.071 2.929s5.119-.977 7.071-2.929c3.905-3.905 3.905-10.237 0-14.143l-4.005-4.005h175.1c5.523 0 10-4.478 10-10s-4.477-10-10-10h-175.1l4.005-4.005c3.905-3.905 3.905-10.237 0-14.143-3.905-3.904-10.237-3.904-14.143 0l-21.076 21.076c-3.905 3.905-3.905 10.237 0 14.143z"/><path id="XMLID_679_" d="m190.71 171.149c-1.86 1.86-2.93 4.44-2.93 7.07s1.07 5.21 2.93 7.07c1.86 1.859 4.44 2.93 7.07 2.93s5.21-1.07 7.07-2.93 2.93-4.44 2.93-7.07-1.07-5.21-2.93-7.07c-1.86-1.869-4.44-2.93-7.07-2.93s-5.21 1.061-7.07 2.93z"/></g></g></svg>